%TF.GenerationSoftware,KiCad,Pcbnew,(6.0.11)*%
%TF.CreationDate,2023-03-28T17:23:35-03:00*%
%TF.ProjectId,singledaq,73696e67-6c65-4646-9171-2e6b69636164,rev?*%
%TF.SameCoordinates,Original*%
%TF.FileFunction,Soldermask,Top*%
%TF.FilePolarity,Negative*%
%FSLAX46Y46*%
G04 Gerber Fmt 4.6, Leading zero omitted, Abs format (unit mm)*
G04 Created by KiCad (PCBNEW (6.0.11)) date 2023-03-28 17:23:35*
%MOMM*%
%LPD*%
G01*
G04 APERTURE LIST*
G04 Aperture macros list*
%AMRoundRect*
0 Rectangle with rounded corners*
0 $1 Rounding radius*
0 $2 $3 $4 $5 $6 $7 $8 $9 X,Y pos of 4 corners*
0 Add a 4 corners polygon primitive as box body*
4,1,4,$2,$3,$4,$5,$6,$7,$8,$9,$2,$3,0*
0 Add four circle primitives for the rounded corners*
1,1,$1+$1,$2,$3*
1,1,$1+$1,$4,$5*
1,1,$1+$1,$6,$7*
1,1,$1+$1,$8,$9*
0 Add four rect primitives between the rounded corners*
20,1,$1+$1,$2,$3,$4,$5,0*
20,1,$1+$1,$4,$5,$6,$7,0*
20,1,$1+$1,$6,$7,$8,$9,0*
20,1,$1+$1,$8,$9,$2,$3,0*%
G04 Aperture macros list end*
%ADD10RoundRect,0.250000X0.475000X-0.250000X0.475000X0.250000X-0.475000X0.250000X-0.475000X-0.250000X0*%
%ADD11R,3.960000X1.980000*%
%ADD12O,3.960000X1.980000*%
%ADD13RoundRect,0.250000X-0.475000X0.250000X-0.475000X-0.250000X0.475000X-0.250000X0.475000X0.250000X0*%
%ADD14R,1.000000X1.100000*%
%ADD15R,2.400000X2.400000*%
%ADD16C,2.400000*%
%ADD17RoundRect,0.250000X0.325000X0.650000X-0.325000X0.650000X-0.325000X-0.650000X0.325000X-0.650000X0*%
%ADD18R,0.400000X1.650000*%
%ADD19O,1.100000X1.500000*%
%ADD20O,1.350000X1.700000*%
%ADD21R,1.430000X2.500000*%
%ADD22R,1.350000X2.000000*%
%ADD23R,2.000000X1.500000*%
%ADD24R,1.825000X0.700000*%
%ADD25RoundRect,0.249999X1.425001X-0.450001X1.425001X0.450001X-1.425001X0.450001X-1.425001X-0.450001X0*%
%ADD26R,2.200000X2.200000*%
%ADD27O,2.200000X2.200000*%
%ADD28RoundRect,0.250000X0.450000X-0.262500X0.450000X0.262500X-0.450000X0.262500X-0.450000X-0.262500X0*%
%ADD29RoundRect,0.150000X0.150000X-0.512500X0.150000X0.512500X-0.150000X0.512500X-0.150000X-0.512500X0*%
%ADD30C,0.900000*%
%ADD31C,8.600000*%
%ADD32RoundRect,0.250000X-0.250000X-0.475000X0.250000X-0.475000X0.250000X0.475000X-0.250000X0.475000X0*%
%ADD33RoundRect,0.249999X-1.425001X0.450001X-1.425001X-0.450001X1.425001X-0.450001X1.425001X0.450001X0*%
%ADD34RoundRect,0.250000X0.250000X0.475000X-0.250000X0.475000X-0.250000X-0.475000X0.250000X-0.475000X0*%
%ADD35RoundRect,0.237500X0.237500X-0.300000X0.237500X0.300000X-0.237500X0.300000X-0.237500X-0.300000X0*%
%ADD36RoundRect,0.249999X0.450001X1.425001X-0.450001X1.425001X-0.450001X-1.425001X0.450001X-1.425001X0*%
%ADD37RoundRect,0.249999X-0.450001X-1.425001X0.450001X-1.425001X0.450001X1.425001X-0.450001X1.425001X0*%
%ADD38R,1.300000X1.900000*%
%ADD39R,1.700000X1.700000*%
%ADD40O,1.700000X1.700000*%
%ADD41R,1.750000X0.450000*%
%ADD42R,1.210000X1.110000*%
%ADD43RoundRect,0.250000X-1.050000X-0.550000X1.050000X-0.550000X1.050000X0.550000X-1.050000X0.550000X0*%
%ADD44RoundRect,0.250000X1.350000X1.975000X-1.350000X1.975000X-1.350000X-1.975000X1.350000X-1.975000X0*%
%ADD45RoundRect,0.250000X0.650000X-0.325000X0.650000X0.325000X-0.650000X0.325000X-0.650000X-0.325000X0*%
%ADD46R,0.420000X0.840000*%
%ADD47R,2.500000X1.600000*%
%ADD48R,1.600000X1.600000*%
%ADD49O,1.600000X1.600000*%
%ADD50C,0.270000*%
%ADD51R,1.450000X1.150000*%
%ADD52RoundRect,0.237500X-0.237500X0.300000X-0.237500X-0.300000X0.237500X-0.300000X0.237500X0.300000X0*%
G04 APERTURE END LIST*
D10*
%TO.C,C104*%
X140782250Y-49114250D03*
X140782250Y-47214250D03*
%TD*%
D11*
%TO.C,J2*%
X164700000Y-111575000D03*
D12*
X164700000Y-116575000D03*
%TD*%
D13*
%TO.C,C102*%
X129658000Y-51584000D03*
X129658000Y-53484000D03*
%TD*%
D14*
%TO.C,C602*%
X127572082Y-81624998D03*
X127572082Y-79924998D03*
%TD*%
D15*
%TO.C,C502*%
X150470000Y-104544785D03*
D16*
X150470000Y-109544785D03*
%TD*%
D17*
%TO.C,C505*%
X113925000Y-123880000D03*
X110975000Y-123880000D03*
%TD*%
D18*
%TO.C,JUSB1*%
X137587000Y-43377000D03*
X136937000Y-43377000D03*
X136287000Y-43377000D03*
X135637000Y-43377000D03*
X134987000Y-43377000D03*
D19*
X133867000Y-43497000D03*
D20*
X133557000Y-40497000D03*
D21*
X135327000Y-40227000D03*
D22*
X133537000Y-41427000D03*
D19*
X138707000Y-43497000D03*
D23*
X139137000Y-43477000D03*
D22*
X139017000Y-41427000D03*
D23*
X133387000Y-43497000D03*
D24*
X133287000Y-42177000D03*
D21*
X137247000Y-40227000D03*
D24*
X139237000Y-42177000D03*
D20*
X139017000Y-40497000D03*
%TD*%
D25*
%TO.C,R603*%
X130800000Y-102660000D03*
X130800000Y-96560000D03*
%TD*%
D10*
%TO.C,C801*%
X138910000Y-80880000D03*
X138910000Y-78980000D03*
%TD*%
%TO.C,C105*%
X147386250Y-49180250D03*
X147386250Y-47280250D03*
%TD*%
D26*
%TO.C,D1*%
X133160000Y-126030000D03*
D27*
X143320000Y-126030000D03*
%TD*%
D28*
%TO.C,FB101*%
X144084250Y-49076750D03*
X144084250Y-47251750D03*
%TD*%
D29*
%TO.C,U1*%
X135566000Y-49353500D03*
X136516000Y-49353500D03*
X137466000Y-49353500D03*
X137466000Y-47078500D03*
X136516000Y-47078500D03*
X135566000Y-47078500D03*
%TD*%
D30*
%TO.C,H1*%
X113930419Y-48910419D03*
X109369581Y-48910419D03*
X111650000Y-49855000D03*
D31*
X111650000Y-46630000D03*
D30*
X109369581Y-44349581D03*
X111650000Y-43405000D03*
X114875000Y-46630000D03*
X108425000Y-46630000D03*
X113930419Y-44349581D03*
%TD*%
D32*
%TO.C,C810*%
X145470000Y-86030000D03*
X147370000Y-86030000D03*
%TD*%
D33*
%TO.C,R605*%
X120810000Y-96600000D03*
X120810000Y-102700000D03*
%TD*%
%TO.C,R602*%
X128338224Y-124420000D03*
X128338224Y-130520000D03*
%TD*%
D34*
%TO.C,C401*%
X123130000Y-73750000D03*
X121230000Y-73750000D03*
%TD*%
D10*
%TO.C,C809*%
X142560000Y-80022071D03*
X142560000Y-78122071D03*
%TD*%
D35*
%TO.C,C504*%
X144400000Y-114620000D03*
X144400000Y-112895000D03*
%TD*%
D26*
%TO.C,D2*%
X143180000Y-119380000D03*
D27*
X133020000Y-119380000D03*
%TD*%
D36*
%TO.C,R601*%
X128380000Y-111540000D03*
X122280000Y-111540000D03*
%TD*%
D37*
%TO.C,R202*%
X136260000Y-66250000D03*
X142360000Y-66250000D03*
%TD*%
D10*
%TO.C,C202*%
X138294000Y-61600000D03*
X138294000Y-59700000D03*
%TD*%
D38*
%TO.C,Y4*%
X126020000Y-76850000D03*
X131520000Y-76850000D03*
X131520000Y-73650000D03*
X126020000Y-73650000D03*
%TD*%
D10*
%TO.C,C701*%
X134110000Y-80850000D03*
X134110000Y-78950000D03*
%TD*%
D39*
%TO.C,JP6*%
X146170000Y-55074000D03*
D40*
X148710000Y-55074000D03*
X151250000Y-55074000D03*
%TD*%
D41*
%TO.C,U3*%
X115810000Y-69035000D03*
X115810000Y-68385000D03*
X115810000Y-67735000D03*
X115810000Y-67085000D03*
X115810000Y-66435000D03*
X115810000Y-65785000D03*
X115810000Y-65135000D03*
X115810000Y-64485000D03*
X115810000Y-63835000D03*
X115810000Y-63185000D03*
X115810000Y-62535000D03*
X115810000Y-61885000D03*
X115810000Y-61235000D03*
X115810000Y-60585000D03*
X108610000Y-60585000D03*
X108610000Y-61235000D03*
X108610000Y-61885000D03*
X108610000Y-62535000D03*
X108610000Y-63185000D03*
X108610000Y-63835000D03*
X108610000Y-64485000D03*
X108610000Y-65135000D03*
X108610000Y-65785000D03*
X108610000Y-66435000D03*
X108610000Y-67085000D03*
X108610000Y-67735000D03*
X108610000Y-68385000D03*
X108610000Y-69035000D03*
%TD*%
D42*
%TO.C,Y1*%
X123370082Y-81542998D03*
X125670082Y-81542998D03*
X125670082Y-79842998D03*
X123370082Y-79842998D03*
%TD*%
D31*
%TO.C,H5*%
X164350000Y-131190000D03*
D30*
X161125000Y-131190000D03*
X166630419Y-128909581D03*
X162069581Y-128909581D03*
X164350000Y-127965000D03*
X164350000Y-134415000D03*
X166630419Y-133470419D03*
X167575000Y-131190000D03*
X162069581Y-133470419D03*
%TD*%
D14*
%TO.C,C601*%
X121522082Y-81594998D03*
X121522082Y-79894998D03*
%TD*%
D10*
%TO.C,C703*%
X126840000Y-90330000D03*
X126840000Y-88430000D03*
%TD*%
D13*
%TO.C,C806*%
X143560000Y-93580000D03*
X143560000Y-95480000D03*
%TD*%
D15*
%TO.C,J4*%
X108640000Y-85100000D03*
D16*
X108640000Y-88600000D03*
X108640000Y-92100000D03*
X108640000Y-95600000D03*
X108640000Y-99100000D03*
%TD*%
D10*
%TO.C,C702*%
X124250000Y-90330000D03*
X124250000Y-88430000D03*
%TD*%
D11*
%TO.C,J3*%
X110510000Y-111720000D03*
D12*
X110510000Y-106720000D03*
%TD*%
D43*
%TO.C,C106*%
X150718000Y-48724000D03*
X154318000Y-48724000D03*
%TD*%
%TO.C,C201*%
X147416000Y-61424000D03*
X151016000Y-61424000D03*
%TD*%
D44*
%TO.C,R1*%
X139110000Y-131640000D03*
X133910000Y-131640000D03*
%TD*%
D32*
%TO.C,C802*%
X145440000Y-82830000D03*
X147340000Y-82830000D03*
%TD*%
D30*
%TO.C,H4*%
X111120000Y-128085000D03*
X108839581Y-129029581D03*
X113400419Y-129029581D03*
X111120000Y-134535000D03*
X108839581Y-133590419D03*
X114345000Y-131310000D03*
X107895000Y-131310000D03*
X113400419Y-133590419D03*
D31*
X111120000Y-131310000D03*
%TD*%
D13*
%TO.C,C808*%
X134042700Y-94297300D03*
X134042700Y-96197300D03*
%TD*%
D30*
%TO.C,H3*%
X155634581Y-71419581D03*
X154690000Y-73700000D03*
X154690000Y-69139162D03*
X150129162Y-69139162D03*
X152409581Y-68194581D03*
X149184581Y-71419581D03*
X150129162Y-73700000D03*
X152409581Y-74644581D03*
D31*
X152409581Y-71419581D03*
%TD*%
D36*
%TO.C,R203*%
X142360000Y-71330000D03*
X136260000Y-71330000D03*
%TD*%
%TO.C,R101*%
X127374000Y-47708000D03*
X121274000Y-47708000D03*
%TD*%
D45*
%TO.C,C506*%
X127215645Y-119727000D03*
X127215645Y-116777000D03*
%TD*%
D25*
%TO.C,R604*%
X125850000Y-102750000D03*
X125850000Y-96650000D03*
%TD*%
D13*
%TO.C,C103*%
X129658000Y-56410000D03*
X129658000Y-58310000D03*
%TD*%
D46*
%TO.C,IB2*%
X142988000Y-59735000D03*
X142038000Y-59735000D03*
X141088000Y-59735000D03*
X141088000Y-62605000D03*
X142038000Y-62605000D03*
X142988000Y-62605000D03*
D47*
X142038000Y-61170000D03*
%TD*%
D48*
%TO.C,U6*%
X124508224Y-126454000D03*
D49*
X124508224Y-123914000D03*
X124508224Y-121374000D03*
X124508224Y-118834000D03*
X116888224Y-118834000D03*
X116888224Y-121374000D03*
X116888224Y-123914000D03*
X116888224Y-126454000D03*
%TD*%
D15*
%TO.C,J5*%
X166660000Y-70420000D03*
D16*
X166660000Y-73920000D03*
X166660000Y-77420000D03*
X166660000Y-80920000D03*
X166660000Y-84420000D03*
X166660000Y-87920000D03*
X166660000Y-91420000D03*
X166660000Y-94920000D03*
X166660000Y-98420000D03*
X166660000Y-101920000D03*
%TD*%
D15*
%TO.C,C501*%
X151930000Y-127715216D03*
D16*
X151930000Y-122715216D03*
%TD*%
D36*
%TO.C,R201*%
X141344000Y-55074000D03*
X135244000Y-55074000D03*
%TD*%
D10*
%TO.C,C804*%
X136480000Y-80860000D03*
X136480000Y-78960000D03*
%TD*%
D34*
%TO.C,C101*%
X131878000Y-47962000D03*
X129978000Y-47962000D03*
%TD*%
D36*
%TO.C,R103*%
X127374000Y-56852000D03*
X121274000Y-56852000D03*
%TD*%
D34*
%TO.C,C402*%
X123100000Y-76680000D03*
X121200000Y-76680000D03*
%TD*%
D50*
%TO.C,U7*%
X136700000Y-83360000D03*
X137200000Y-83360000D03*
X137700000Y-83360000D03*
X138200000Y-83360000D03*
X138700000Y-83360000D03*
X139200000Y-83360000D03*
X139700000Y-83360000D03*
X140200000Y-83360000D03*
X140700000Y-83360000D03*
X141200000Y-83360000D03*
X141700000Y-83360000D03*
X142200000Y-83360000D03*
X142700000Y-83360000D03*
X136700000Y-83860000D03*
X137200000Y-83860000D03*
X137700000Y-83860000D03*
X138200000Y-83860000D03*
X138700000Y-83860000D03*
X139200000Y-83860000D03*
X139700000Y-83860000D03*
X140200000Y-83860000D03*
X140700000Y-83860000D03*
X141200000Y-83860000D03*
X141700000Y-83860000D03*
X142200000Y-83860000D03*
X142700000Y-83860000D03*
X136700000Y-84360000D03*
X137200000Y-84360000D03*
X137700000Y-84360000D03*
X138200000Y-84360000D03*
X138700000Y-84360000D03*
X139200000Y-84360000D03*
X139700000Y-84360000D03*
X140200000Y-84360000D03*
X140700000Y-84360000D03*
X141200000Y-84360000D03*
X141700000Y-84360000D03*
X142200000Y-84360000D03*
X142700000Y-84360000D03*
X136700000Y-84860000D03*
X137200000Y-84860000D03*
X137700000Y-84860000D03*
X138200000Y-84860000D03*
X138700000Y-84860000D03*
X139200000Y-84860000D03*
X139700000Y-84860000D03*
X140200000Y-84860000D03*
X140700000Y-84860000D03*
X141200000Y-84860000D03*
X141700000Y-84860000D03*
X142200000Y-84860000D03*
X142700000Y-84860000D03*
X136700000Y-85360000D03*
X137200000Y-85360000D03*
X137700000Y-85360000D03*
X138200000Y-85360000D03*
X138700000Y-85360000D03*
X139200000Y-85360000D03*
X139700000Y-85360000D03*
X140200000Y-85360000D03*
X140700000Y-85360000D03*
X141200000Y-85360000D03*
X141700000Y-85360000D03*
X142200000Y-85360000D03*
X142700000Y-85360000D03*
X136700000Y-85860000D03*
X137200000Y-85860000D03*
X137700000Y-85860000D03*
X138200000Y-85860000D03*
X138700000Y-85860000D03*
X139200000Y-85860000D03*
X139700000Y-85860000D03*
X140200000Y-85860000D03*
X140700000Y-85860000D03*
X141200000Y-85860000D03*
X141700000Y-85860000D03*
X142200000Y-85860000D03*
X142700000Y-85860000D03*
X136700000Y-86360000D03*
X137200000Y-86360000D03*
X137700000Y-86360000D03*
X138200000Y-86360000D03*
X138700000Y-86360000D03*
X139200000Y-86360000D03*
X139700000Y-86360000D03*
X140200000Y-86360000D03*
X140700000Y-86360000D03*
X141200000Y-86360000D03*
X141700000Y-86360000D03*
X142200000Y-86360000D03*
X142700000Y-86360000D03*
X136700000Y-86860000D03*
X137200000Y-86860000D03*
X137700000Y-86860000D03*
X138200000Y-86860000D03*
X138700000Y-86860000D03*
X139200000Y-86860000D03*
X139700000Y-86860000D03*
X140200000Y-86860000D03*
X140700000Y-86860000D03*
X141200000Y-86860000D03*
X141700000Y-86860000D03*
X142200000Y-86860000D03*
X142700000Y-86860000D03*
X136700000Y-87360000D03*
X137200000Y-87360000D03*
X137700000Y-87360000D03*
X138200000Y-87360000D03*
X138700000Y-87360000D03*
X139200000Y-87360000D03*
X139700000Y-87360000D03*
X140200000Y-87360000D03*
X140700000Y-87360000D03*
X141200000Y-87360000D03*
X141700000Y-87360000D03*
X142200000Y-87360000D03*
X142700000Y-87360000D03*
X136700000Y-87860000D03*
X137200000Y-87860000D03*
X137700000Y-87860000D03*
X138200000Y-87860000D03*
X138700000Y-87860000D03*
X139200000Y-87860000D03*
X139700000Y-87860000D03*
X140200000Y-87860000D03*
X140700000Y-87860000D03*
X141200000Y-87860000D03*
X141700000Y-87860000D03*
X142200000Y-87860000D03*
X142700000Y-87860000D03*
X136700000Y-88360000D03*
X137200000Y-88360000D03*
X137700000Y-88360000D03*
X138200000Y-88360000D03*
X138700000Y-88360000D03*
X139200000Y-88360000D03*
X139700000Y-88360000D03*
X140200000Y-88360000D03*
X140700000Y-88360000D03*
X141200000Y-88360000D03*
X141700000Y-88360000D03*
X142200000Y-88360000D03*
X142700000Y-88360000D03*
X136700000Y-88860000D03*
X137200000Y-88860000D03*
X137700000Y-88860000D03*
X138200000Y-88860000D03*
X138700000Y-88860000D03*
X139200000Y-88860000D03*
X139700000Y-88860000D03*
X140200000Y-88860000D03*
X140700000Y-88860000D03*
X141200000Y-88860000D03*
X141700000Y-88860000D03*
X142200000Y-88860000D03*
X142700000Y-88860000D03*
X136700000Y-89360000D03*
X137200000Y-89360000D03*
X137700000Y-89360000D03*
X138200000Y-89360000D03*
X138700000Y-89360000D03*
X139200000Y-89360000D03*
X139700000Y-89360000D03*
X140200000Y-89360000D03*
X140700000Y-89360000D03*
X141200000Y-89360000D03*
X141700000Y-89360000D03*
X142200000Y-89360000D03*
X142700000Y-89360000D03*
%TD*%
D44*
%TO.C,R2*%
X139110000Y-113040000D03*
X133910000Y-113040000D03*
%TD*%
D51*
%TO.C,C203*%
X135246000Y-61550000D03*
X135246000Y-59750000D03*
%TD*%
D13*
%TO.C,C807*%
X148000000Y-93670000D03*
X148000000Y-95570000D03*
%TD*%
D36*
%TO.C,R102*%
X127374000Y-52280000D03*
X121274000Y-52280000D03*
%TD*%
D52*
%TO.C,C503*%
X144880000Y-131647500D03*
X144880000Y-133372500D03*
%TD*%
D32*
%TO.C,C803*%
X145790000Y-89910000D03*
X147690000Y-89910000D03*
%TD*%
D11*
%TO.C,J1*%
X164730000Y-56735000D03*
D12*
X164730000Y-61735000D03*
%TD*%
D10*
%TO.C,C301*%
X105179000Y-67115000D03*
X105179000Y-69015000D03*
%TD*%
D13*
%TO.C,C805*%
X139680000Y-93864142D03*
X139680000Y-95764142D03*
%TD*%
D30*
%TO.C,H2*%
X161639581Y-48710419D03*
X163920000Y-43205000D03*
X161639581Y-44149581D03*
X163920000Y-49655000D03*
X166200419Y-44149581D03*
X167145000Y-46430000D03*
X160695000Y-46430000D03*
D31*
X163920000Y-46430000D03*
D30*
X166200419Y-48710419D03*
%TD*%
M02*
