M48
; DRILL file {KiCad (6.0.11)} date Tue Mar 28 17:23:50 2023
; FORMAT={-:-/ absolute / inch / decimal}
; #@! TF.CreationDate,2023-03-28T17:23:50-03:00
; #@! TF.GenerationSoftware,Kicad,Pcbnew,(6.0.11)
; #@! TF.FileFunction,Plated,1,2,PTH
FMAT,2
INCH
; #@! TA.AperFunction,Plated,PTH,ViaDrill
T1C0.0157
; #@! TA.AperFunction,Plated,PTH,ComponentDrill
T2C0.0236
; #@! TA.AperFunction,Plated,PTH,ComponentDrill
T3C0.0256
; #@! TA.AperFunction,Plated,PTH,ComponentDrill
T4C0.0276
; #@! TA.AperFunction,Plated,PTH,ComponentDrill
T5C0.0315
; #@! TA.AperFunction,Plated,PTH,ComponentDrill
T6C0.0394
; #@! TA.AperFunction,Plated,PTH,ComponentDrill
T7C0.0433
; #@! TA.AperFunction,Plated,PTH,ComponentDrill
T8C0.0472
; #@! TA.AperFunction,Plated,PTH,ComponentDrill
T9C0.0520
; #@! TA.AperFunction,Plated,PTH,ComponentDrill
T10C0.1693
%
G90
G05
T1
X4.1425Y-2.5719
X4.313Y-4.8764
X4.3577Y-2.5416
X4.3677Y-2.6416
X4.4777Y-2.5616
X4.6315Y-2.6638
X4.6315Y-3.1858
X4.6457Y-4.2016
X4.6959Y-4.6885
X4.7046Y-1.8783
X4.7091Y-3.0189
X4.7094Y-2.9098
X4.7297Y-3.1455
X4.7587Y-4.1181
X4.7811Y-3.5602
X4.8102Y-3.6624
X4.9039Y-3.1779
X4.9445Y-3.4213
X4.9972Y-3.0917
X5.0736Y-3.5843
X5.0823Y-3.6343
X5.0935Y-4.7194
X5.1046Y-2.1583
X5.1046Y-2.3483
X5.1083Y-3.4307
X5.1172Y-1.9557
X5.1488Y-3.3941
X5.1772Y-4.116
X5.1913Y-3.428
X5.2102Y-2.7268
X5.2102Y-3.1413
X5.2425Y-3.4252
X5.2546Y-2.1683
X5.2788Y-3.8467
X5.2846Y-3.0496
X5.2991Y-2.9626
X5.3047Y-2.8083
X5.3246Y-2.2978
X5.337Y-3.5996
X5.3746Y-2.0083
X5.3768Y-3.0508
X5.3996Y-3.7224
X5.4012Y-3.652
X5.4446Y-2.2983
X5.4713Y-3.0433
X5.4778Y-3.6341
X5.4914Y-3.5972
X5.5Y-3.8246
X5.5413Y-3.1953
X5.5422Y-1.798
X5.552Y-2.294
X5.592Y-2.294
X5.6122Y-3.0182
X5.6362Y-3.6305
X5.6488Y-5.0516
X5.652Y-3.8244
X5.685Y-4.5886
X5.7197Y-4.6965
X5.7382Y-3.4764
X5.7619Y-5.2517
X5.7642Y-3.3248
X5.8026Y-1.8005
X5.8268Y-3.8194
X5.8602Y-3.3809
X5.8618Y-3.4929
X5.8622Y-3.2689
X5.922Y-3.8941
X5.9689Y-4.6055
X6.0446Y-2.4183
X6.1691Y-1.9225
X6.1935Y-2.4305
X6.3792Y-2.7724
T2
X4.2478Y-5.1697
X4.2687Y-1.8358
X4.285Y-5.0799
X4.285Y-5.2595
X4.3059Y-1.746
X4.3059Y-1.9256
X4.3748Y-5.0427
X4.3748Y-5.2967
X4.3957Y-1.7089
X4.3957Y-1.9628
X4.4646Y-5.0799
X4.4646Y-5.2595
X4.4854Y-1.746
X4.4854Y-1.9256
X4.5018Y-5.1697
X4.5226Y-1.8358
X5.8734Y-2.8118
X5.9106Y-2.722
X5.9106Y-2.9016
X6.0004Y-2.6848
X6.0004Y-2.9388
X6.0902Y-2.722
X6.0902Y-2.9016
X6.1273Y-2.8118
X6.3266Y-1.828
X6.3435Y-5.165
X6.3638Y-1.7382
X6.3638Y-1.9177
X6.3807Y-5.0752
X6.3807Y-5.2547
X6.4535Y-1.701
X6.4535Y-1.9549
X6.4705Y-5.038
X6.4705Y-5.2919
X6.5433Y-1.7382
X6.5433Y-1.9177
X6.5603Y-5.0752
X6.5603Y-5.2547
X6.5805Y-1.828
X6.5974Y-5.165
T5
X4.6019Y-4.6785
X4.6019Y-4.7785
X4.6019Y-4.8785
X4.6019Y-4.9785
X4.9019Y-4.6785
X4.9019Y-4.7785
X4.9019Y-4.8785
X4.9019Y-4.9785
T6
X5.7547Y-2.1683
X5.8547Y-2.1683
X5.9547Y-2.1683
T7
X5.237Y-4.7
X5.2425Y-4.9618
X5.637Y-4.7
X5.6425Y-4.9618
T8
X4.2772Y-3.3504
X4.2772Y-3.4882
X4.2772Y-3.626
X4.2772Y-3.7638
X4.2772Y-3.9016
X5.924Y-4.1159
X5.924Y-4.3128
X5.9815Y-4.8313
X5.9815Y-5.0282
X6.5614Y-2.7724
X6.5614Y-2.9102
X6.5614Y-3.048
X6.5614Y-3.1858
X6.5614Y-3.3236
X6.5614Y-3.4614
X6.5614Y-3.5992
X6.5614Y-3.737
X6.5614Y-3.8748
X6.5614Y-4.0126
T9
X4.3508Y-4.2016
X4.3508Y-4.3984
X6.4843Y-4.3927
X6.4843Y-4.5896
X6.4854Y-2.2337
X6.4854Y-2.4305
T10
X4.3748Y-5.1697
X4.3957Y-1.8358
X6.0004Y-2.8118
X6.4535Y-1.828
X6.4705Y-5.165
T3
G00X5.2704Y-1.7046
M15
G01X5.2704Y-1.7204
M16
G05
G00X5.4609Y-1.7046
M15
G01X5.4609Y-1.7204
M16
G05
T4
G00X5.2581Y-1.5845
M15
G01X5.2581Y-1.6042
M16
G05
G00X5.4731Y-1.5845
M15
G01X5.4731Y-1.6042
M16
G05
T0
M30
