%TF.GenerationSoftware,KiCad,Pcbnew,(6.0.11)*%
%TF.CreationDate,2023-03-28T17:23:35-03:00*%
%TF.ProjectId,singledaq,73696e67-6c65-4646-9171-2e6b69636164,rev?*%
%TF.SameCoordinates,Original*%
%TF.FileFunction,Paste,Top*%
%TF.FilePolarity,Positive*%
%FSLAX46Y46*%
G04 Gerber Fmt 4.6, Leading zero omitted, Abs format (unit mm)*
G04 Created by KiCad (PCBNEW (6.0.11)) date 2023-03-28 17:23:35*
%MOMM*%
%LPD*%
G01*
G04 APERTURE LIST*
G04 Aperture macros list*
%AMRoundRect*
0 Rectangle with rounded corners*
0 $1 Rounding radius*
0 $2 $3 $4 $5 $6 $7 $8 $9 X,Y pos of 4 corners*
0 Add a 4 corners polygon primitive as box body*
4,1,4,$2,$3,$4,$5,$6,$7,$8,$9,$2,$3,0*
0 Add four circle primitives for the rounded corners*
1,1,$1+$1,$2,$3*
1,1,$1+$1,$4,$5*
1,1,$1+$1,$6,$7*
1,1,$1+$1,$8,$9*
0 Add four rect primitives between the rounded corners*
20,1,$1+$1,$2,$3,$4,$5,0*
20,1,$1+$1,$4,$5,$6,$7,0*
20,1,$1+$1,$6,$7,$8,$9,0*
20,1,$1+$1,$8,$9,$2,$3,0*%
G04 Aperture macros list end*
%ADD10C,0.150000*%
%ADD11C,0.010000*%
%ADD12RoundRect,0.250000X0.475000X-0.250000X0.475000X0.250000X-0.475000X0.250000X-0.475000X-0.250000X0*%
%ADD13RoundRect,0.250000X-0.475000X0.250000X-0.475000X-0.250000X0.475000X-0.250000X0.475000X0.250000X0*%
%ADD14R,1.000000X1.100000*%
%ADD15RoundRect,0.250000X0.325000X0.650000X-0.325000X0.650000X-0.325000X-0.650000X0.325000X-0.650000X0*%
%ADD16R,0.400000X1.650000*%
%ADD17R,1.430000X2.500000*%
%ADD18R,1.350000X2.000000*%
%ADD19R,2.000000X1.500000*%
%ADD20R,1.825000X0.700000*%
%ADD21RoundRect,0.249999X1.425001X-0.450001X1.425001X0.450001X-1.425001X0.450001X-1.425001X-0.450001X0*%
%ADD22RoundRect,0.250000X0.450000X-0.262500X0.450000X0.262500X-0.450000X0.262500X-0.450000X-0.262500X0*%
%ADD23RoundRect,0.150000X0.150000X-0.512500X0.150000X0.512500X-0.150000X0.512500X-0.150000X-0.512500X0*%
%ADD24RoundRect,0.250000X-0.250000X-0.475000X0.250000X-0.475000X0.250000X0.475000X-0.250000X0.475000X0*%
%ADD25RoundRect,0.249999X-1.425001X0.450001X-1.425001X-0.450001X1.425001X-0.450001X1.425001X0.450001X0*%
%ADD26RoundRect,0.250000X0.250000X0.475000X-0.250000X0.475000X-0.250000X-0.475000X0.250000X-0.475000X0*%
%ADD27RoundRect,0.237500X0.237500X-0.300000X0.237500X0.300000X-0.237500X0.300000X-0.237500X-0.300000X0*%
%ADD28RoundRect,0.249999X0.450001X1.425001X-0.450001X1.425001X-0.450001X-1.425001X0.450001X-1.425001X0*%
%ADD29RoundRect,0.249999X-0.450001X-1.425001X0.450001X-1.425001X0.450001X1.425001X-0.450001X1.425001X0*%
%ADD30R,1.300000X1.900000*%
%ADD31R,1.750000X0.450000*%
%ADD32R,1.210000X1.110000*%
%ADD33RoundRect,0.250000X-1.050000X-0.550000X1.050000X-0.550000X1.050000X0.550000X-1.050000X0.550000X0*%
%ADD34RoundRect,0.250000X1.350000X1.975000X-1.350000X1.975000X-1.350000X-1.975000X1.350000X-1.975000X0*%
%ADD35RoundRect,0.250000X0.650000X-0.325000X0.650000X0.325000X-0.650000X0.325000X-0.650000X-0.325000X0*%
%ADD36R,0.420000X0.840000*%
%ADD37C,0.270000*%
%ADD38R,1.450000X1.150000*%
%ADD39RoundRect,0.237500X-0.237500X0.300000X-0.237500X-0.300000X0.237500X-0.300000X0.237500X0.300000X0*%
G04 APERTURE END LIST*
D10*
%TO.C,U7*%
X138938095Y-85812380D02*
X138938095Y-86621904D01*
X138985714Y-86717142D01*
X139033333Y-86764761D01*
X139128571Y-86812380D01*
X139319047Y-86812380D01*
X139414285Y-86764761D01*
X139461904Y-86717142D01*
X139509523Y-86621904D01*
X139509523Y-85812380D01*
X139890476Y-85812380D02*
X140557142Y-85812380D01*
X140128571Y-86812380D01*
%TO.C,IB2*%
G36*
X142828569Y-61675966D02*
G01*
X141247431Y-61675966D01*
X141247431Y-60664034D01*
X142828569Y-60664034D01*
X142828569Y-61675966D01*
G37*
D11*
X142828569Y-61675966D02*
X141247431Y-61675966D01*
X141247431Y-60664034D01*
X142828569Y-60664034D01*
X142828569Y-61675966D01*
%TD*%
D12*
%TO.C,C104*%
X140782250Y-49114250D03*
X140782250Y-47214250D03*
%TD*%
D13*
%TO.C,C102*%
X129658000Y-51584000D03*
X129658000Y-53484000D03*
%TD*%
D14*
%TO.C,C602*%
X127572082Y-81624998D03*
X127572082Y-79924998D03*
%TD*%
D15*
%TO.C,C505*%
X113925000Y-123880000D03*
X110975000Y-123880000D03*
%TD*%
D16*
%TO.C,JUSB1*%
X137587000Y-43377000D03*
X136937000Y-43377000D03*
X136287000Y-43377000D03*
X135637000Y-43377000D03*
X134987000Y-43377000D03*
D17*
X135327000Y-40227000D03*
D18*
X133537000Y-41427000D03*
D19*
X139137000Y-43477000D03*
D18*
X139017000Y-41427000D03*
D19*
X133387000Y-43497000D03*
D20*
X133287000Y-42177000D03*
D17*
X137247000Y-40227000D03*
D20*
X139237000Y-42177000D03*
%TD*%
D21*
%TO.C,R603*%
X130800000Y-102660000D03*
X130800000Y-96560000D03*
%TD*%
D12*
%TO.C,C801*%
X138910000Y-80880000D03*
X138910000Y-78980000D03*
%TD*%
%TO.C,C105*%
X147386250Y-49180250D03*
X147386250Y-47280250D03*
%TD*%
D22*
%TO.C,FB101*%
X144084250Y-49076750D03*
X144084250Y-47251750D03*
%TD*%
D23*
%TO.C,U1*%
X135566000Y-49353500D03*
X136516000Y-49353500D03*
X137466000Y-49353500D03*
X137466000Y-47078500D03*
X136516000Y-47078500D03*
X135566000Y-47078500D03*
%TD*%
D24*
%TO.C,C810*%
X145470000Y-86030000D03*
X147370000Y-86030000D03*
%TD*%
D25*
%TO.C,R605*%
X120810000Y-96600000D03*
X120810000Y-102700000D03*
%TD*%
%TO.C,R602*%
X128338224Y-124420000D03*
X128338224Y-130520000D03*
%TD*%
D26*
%TO.C,C401*%
X123130000Y-73750000D03*
X121230000Y-73750000D03*
%TD*%
D12*
%TO.C,C809*%
X142560000Y-80022071D03*
X142560000Y-78122071D03*
%TD*%
D27*
%TO.C,C504*%
X144400000Y-114620000D03*
X144400000Y-112895000D03*
%TD*%
D28*
%TO.C,R601*%
X128380000Y-111540000D03*
X122280000Y-111540000D03*
%TD*%
D29*
%TO.C,R202*%
X136260000Y-66250000D03*
X142360000Y-66250000D03*
%TD*%
D12*
%TO.C,C202*%
X138294000Y-61600000D03*
X138294000Y-59700000D03*
%TD*%
D30*
%TO.C,Y4*%
X126020000Y-76850000D03*
X131520000Y-76850000D03*
X131520000Y-73650000D03*
X126020000Y-73650000D03*
%TD*%
D12*
%TO.C,C701*%
X134110000Y-80850000D03*
X134110000Y-78950000D03*
%TD*%
D31*
%TO.C,U3*%
X115810000Y-69035000D03*
X115810000Y-68385000D03*
X115810000Y-67735000D03*
X115810000Y-67085000D03*
X115810000Y-66435000D03*
X115810000Y-65785000D03*
X115810000Y-65135000D03*
X115810000Y-64485000D03*
X115810000Y-63835000D03*
X115810000Y-63185000D03*
X115810000Y-62535000D03*
X115810000Y-61885000D03*
X115810000Y-61235000D03*
X115810000Y-60585000D03*
X108610000Y-60585000D03*
X108610000Y-61235000D03*
X108610000Y-61885000D03*
X108610000Y-62535000D03*
X108610000Y-63185000D03*
X108610000Y-63835000D03*
X108610000Y-64485000D03*
X108610000Y-65135000D03*
X108610000Y-65785000D03*
X108610000Y-66435000D03*
X108610000Y-67085000D03*
X108610000Y-67735000D03*
X108610000Y-68385000D03*
X108610000Y-69035000D03*
%TD*%
D32*
%TO.C,Y1*%
X123370082Y-81542998D03*
X125670082Y-81542998D03*
X125670082Y-79842998D03*
X123370082Y-79842998D03*
%TD*%
D14*
%TO.C,C601*%
X121522082Y-81594998D03*
X121522082Y-79894998D03*
%TD*%
D12*
%TO.C,C703*%
X126840000Y-90330000D03*
X126840000Y-88430000D03*
%TD*%
D13*
%TO.C,C806*%
X143560000Y-93580000D03*
X143560000Y-95480000D03*
%TD*%
D12*
%TO.C,C702*%
X124250000Y-90330000D03*
X124250000Y-88430000D03*
%TD*%
D33*
%TO.C,C106*%
X150718000Y-48724000D03*
X154318000Y-48724000D03*
%TD*%
%TO.C,C201*%
X147416000Y-61424000D03*
X151016000Y-61424000D03*
%TD*%
D34*
%TO.C,R1*%
X139110000Y-131640000D03*
X133910000Y-131640000D03*
%TD*%
D24*
%TO.C,C802*%
X145440000Y-82830000D03*
X147340000Y-82830000D03*
%TD*%
D13*
%TO.C,C808*%
X134042700Y-94297300D03*
X134042700Y-96197300D03*
%TD*%
D28*
%TO.C,R203*%
X142360000Y-71330000D03*
X136260000Y-71330000D03*
%TD*%
%TO.C,R101*%
X127374000Y-47708000D03*
X121274000Y-47708000D03*
%TD*%
D35*
%TO.C,C506*%
X127215645Y-119727000D03*
X127215645Y-116777000D03*
%TD*%
D21*
%TO.C,R604*%
X125850000Y-102750000D03*
X125850000Y-96650000D03*
%TD*%
D13*
%TO.C,C103*%
X129658000Y-56410000D03*
X129658000Y-58310000D03*
%TD*%
D36*
%TO.C,IB2*%
X142988000Y-59735000D03*
X142038000Y-59735000D03*
X141088000Y-59735000D03*
X141088000Y-62605000D03*
X142038000Y-62605000D03*
X142988000Y-62605000D03*
%TD*%
D28*
%TO.C,R201*%
X141344000Y-55074000D03*
X135244000Y-55074000D03*
%TD*%
D12*
%TO.C,C804*%
X136480000Y-80860000D03*
X136480000Y-78960000D03*
%TD*%
D26*
%TO.C,C101*%
X131878000Y-47962000D03*
X129978000Y-47962000D03*
%TD*%
D28*
%TO.C,R103*%
X127374000Y-56852000D03*
X121274000Y-56852000D03*
%TD*%
D26*
%TO.C,C402*%
X123100000Y-76680000D03*
X121200000Y-76680000D03*
%TD*%
D37*
%TO.C,U7*%
X136700000Y-83360000D03*
X137200000Y-83360000D03*
X137700000Y-83360000D03*
X138200000Y-83360000D03*
X138700000Y-83360000D03*
X139200000Y-83360000D03*
X139700000Y-83360000D03*
X140200000Y-83360000D03*
X140700000Y-83360000D03*
X141200000Y-83360000D03*
X141700000Y-83360000D03*
X142200000Y-83360000D03*
X142700000Y-83360000D03*
X136700000Y-83860000D03*
X137200000Y-83860000D03*
X137700000Y-83860000D03*
X138200000Y-83860000D03*
X138700000Y-83860000D03*
X139200000Y-83860000D03*
X139700000Y-83860000D03*
X140200000Y-83860000D03*
X140700000Y-83860000D03*
X141200000Y-83860000D03*
X141700000Y-83860000D03*
X142200000Y-83860000D03*
X142700000Y-83860000D03*
X136700000Y-84360000D03*
X137200000Y-84360000D03*
X137700000Y-84360000D03*
X138200000Y-84360000D03*
X138700000Y-84360000D03*
X139200000Y-84360000D03*
X139700000Y-84360000D03*
X140200000Y-84360000D03*
X140700000Y-84360000D03*
X141200000Y-84360000D03*
X141700000Y-84360000D03*
X142200000Y-84360000D03*
X142700000Y-84360000D03*
X136700000Y-84860000D03*
X137200000Y-84860000D03*
X137700000Y-84860000D03*
X138200000Y-84860000D03*
X138700000Y-84860000D03*
X139200000Y-84860000D03*
X139700000Y-84860000D03*
X140200000Y-84860000D03*
X140700000Y-84860000D03*
X141200000Y-84860000D03*
X141700000Y-84860000D03*
X142200000Y-84860000D03*
X142700000Y-84860000D03*
X136700000Y-85360000D03*
X137200000Y-85360000D03*
X137700000Y-85360000D03*
X138200000Y-85360000D03*
X138700000Y-85360000D03*
X139200000Y-85360000D03*
X139700000Y-85360000D03*
X140200000Y-85360000D03*
X140700000Y-85360000D03*
X141200000Y-85360000D03*
X141700000Y-85360000D03*
X142200000Y-85360000D03*
X142700000Y-85360000D03*
X136700000Y-85860000D03*
X137200000Y-85860000D03*
X137700000Y-85860000D03*
X138200000Y-85860000D03*
X138700000Y-85860000D03*
X139200000Y-85860000D03*
X139700000Y-85860000D03*
X140200000Y-85860000D03*
X140700000Y-85860000D03*
X141200000Y-85860000D03*
X141700000Y-85860000D03*
X142200000Y-85860000D03*
X142700000Y-85860000D03*
X136700000Y-86360000D03*
X137200000Y-86360000D03*
X137700000Y-86360000D03*
X138200000Y-86360000D03*
X138700000Y-86360000D03*
X139200000Y-86360000D03*
X139700000Y-86360000D03*
X140200000Y-86360000D03*
X140700000Y-86360000D03*
X141200000Y-86360000D03*
X141700000Y-86360000D03*
X142200000Y-86360000D03*
X142700000Y-86360000D03*
X136700000Y-86860000D03*
X137200000Y-86860000D03*
X137700000Y-86860000D03*
X138200000Y-86860000D03*
X138700000Y-86860000D03*
X139200000Y-86860000D03*
X139700000Y-86860000D03*
X140200000Y-86860000D03*
X140700000Y-86860000D03*
X141200000Y-86860000D03*
X141700000Y-86860000D03*
X142200000Y-86860000D03*
X142700000Y-86860000D03*
X136700000Y-87360000D03*
X137200000Y-87360000D03*
X137700000Y-87360000D03*
X138200000Y-87360000D03*
X138700000Y-87360000D03*
X139200000Y-87360000D03*
X139700000Y-87360000D03*
X140200000Y-87360000D03*
X140700000Y-87360000D03*
X141200000Y-87360000D03*
X141700000Y-87360000D03*
X142200000Y-87360000D03*
X142700000Y-87360000D03*
X136700000Y-87860000D03*
X137200000Y-87860000D03*
X137700000Y-87860000D03*
X138200000Y-87860000D03*
X138700000Y-87860000D03*
X139200000Y-87860000D03*
X139700000Y-87860000D03*
X140200000Y-87860000D03*
X140700000Y-87860000D03*
X141200000Y-87860000D03*
X141700000Y-87860000D03*
X142200000Y-87860000D03*
X142700000Y-87860000D03*
X136700000Y-88360000D03*
X137200000Y-88360000D03*
X137700000Y-88360000D03*
X138200000Y-88360000D03*
X138700000Y-88360000D03*
X139200000Y-88360000D03*
X139700000Y-88360000D03*
X140200000Y-88360000D03*
X140700000Y-88360000D03*
X141200000Y-88360000D03*
X141700000Y-88360000D03*
X142200000Y-88360000D03*
X142700000Y-88360000D03*
X136700000Y-88860000D03*
X137200000Y-88860000D03*
X137700000Y-88860000D03*
X138200000Y-88860000D03*
X138700000Y-88860000D03*
X139200000Y-88860000D03*
X139700000Y-88860000D03*
X140200000Y-88860000D03*
X140700000Y-88860000D03*
X141200000Y-88860000D03*
X141700000Y-88860000D03*
X142200000Y-88860000D03*
X142700000Y-88860000D03*
X136700000Y-89360000D03*
X137200000Y-89360000D03*
X137700000Y-89360000D03*
X138200000Y-89360000D03*
X138700000Y-89360000D03*
X139200000Y-89360000D03*
X139700000Y-89360000D03*
X140200000Y-89360000D03*
X140700000Y-89360000D03*
X141200000Y-89360000D03*
X141700000Y-89360000D03*
X142200000Y-89360000D03*
X142700000Y-89360000D03*
%TD*%
D34*
%TO.C,R2*%
X139110000Y-113040000D03*
X133910000Y-113040000D03*
%TD*%
D38*
%TO.C,C203*%
X135246000Y-61550000D03*
X135246000Y-59750000D03*
%TD*%
D13*
%TO.C,C807*%
X148000000Y-93670000D03*
X148000000Y-95570000D03*
%TD*%
D28*
%TO.C,R102*%
X127374000Y-52280000D03*
X121274000Y-52280000D03*
%TD*%
D39*
%TO.C,C503*%
X144880000Y-131647500D03*
X144880000Y-133372500D03*
%TD*%
D24*
%TO.C,C803*%
X145790000Y-89910000D03*
X147690000Y-89910000D03*
%TD*%
D12*
%TO.C,C301*%
X105179000Y-67115000D03*
X105179000Y-69015000D03*
%TD*%
D13*
%TO.C,C805*%
X139680000Y-93864142D03*
X139680000Y-95764142D03*
%TD*%
M02*
