%TF.GenerationSoftware,KiCad,Pcbnew,(6.0.11)*%
%TF.CreationDate,2023-03-28T17:23:35-03:00*%
%TF.ProjectId,singledaq,73696e67-6c65-4646-9171-2e6b69636164,rev?*%
%TF.SameCoordinates,Original*%
%TF.FileFunction,Soldermask,Bot*%
%TF.FilePolarity,Negative*%
%FSLAX46Y46*%
G04 Gerber Fmt 4.6, Leading zero omitted, Abs format (unit mm)*
G04 Created by KiCad (PCBNEW (6.0.11)) date 2023-03-28 17:23:35*
%MOMM*%
%LPD*%
G01*
G04 APERTURE LIST*
%ADD10R,3.960000X1.980000*%
%ADD11O,3.960000X1.980000*%
%ADD12R,2.400000X2.400000*%
%ADD13C,2.400000*%
%ADD14O,1.100000X1.500000*%
%ADD15O,1.350000X1.700000*%
%ADD16R,2.200000X2.200000*%
%ADD17O,2.200000X2.200000*%
%ADD18C,0.900000*%
%ADD19C,8.600000*%
%ADD20R,1.700000X1.700000*%
%ADD21O,1.700000X1.700000*%
%ADD22R,1.600000X1.600000*%
%ADD23O,1.600000X1.600000*%
G04 APERTURE END LIST*
D10*
%TO.C,J2*%
X164700000Y-111575000D03*
D11*
X164700000Y-116575000D03*
%TD*%
D12*
%TO.C,C502*%
X150470000Y-104544785D03*
D13*
X150470000Y-109544785D03*
%TD*%
D14*
%TO.C,JUSB1*%
X133867000Y-43497000D03*
D15*
X133557000Y-40497000D03*
D14*
X138707000Y-43497000D03*
D15*
X139017000Y-40497000D03*
%TD*%
D16*
%TO.C,D1*%
X133160000Y-126030000D03*
D17*
X143320000Y-126030000D03*
%TD*%
D18*
%TO.C,H1*%
X113930419Y-48910419D03*
X109369581Y-48910419D03*
X111650000Y-49855000D03*
D19*
X111650000Y-46630000D03*
D18*
X109369581Y-44349581D03*
X111650000Y-43405000D03*
X114875000Y-46630000D03*
X108425000Y-46630000D03*
X113930419Y-44349581D03*
%TD*%
D16*
%TO.C,D2*%
X143180000Y-119380000D03*
D17*
X133020000Y-119380000D03*
%TD*%
D20*
%TO.C,JP6*%
X146170000Y-55074000D03*
D21*
X148710000Y-55074000D03*
X151250000Y-55074000D03*
%TD*%
D19*
%TO.C,H5*%
X164350000Y-131190000D03*
D18*
X161125000Y-131190000D03*
X166630419Y-128909581D03*
X162069581Y-128909581D03*
X164350000Y-127965000D03*
X164350000Y-134415000D03*
X166630419Y-133470419D03*
X167575000Y-131190000D03*
X162069581Y-133470419D03*
%TD*%
D12*
%TO.C,J4*%
X108640000Y-85100000D03*
D13*
X108640000Y-88600000D03*
X108640000Y-92100000D03*
X108640000Y-95600000D03*
X108640000Y-99100000D03*
%TD*%
D10*
%TO.C,J3*%
X110510000Y-111720000D03*
D11*
X110510000Y-106720000D03*
%TD*%
D18*
%TO.C,H4*%
X111120000Y-128085000D03*
X108839581Y-129029581D03*
X113400419Y-129029581D03*
X111120000Y-134535000D03*
X108839581Y-133590419D03*
X114345000Y-131310000D03*
X107895000Y-131310000D03*
X113400419Y-133590419D03*
D19*
X111120000Y-131310000D03*
%TD*%
D18*
%TO.C,H3*%
X155634581Y-71419581D03*
X154690000Y-73700000D03*
X154690000Y-69139162D03*
X150129162Y-69139162D03*
X152409581Y-68194581D03*
X149184581Y-71419581D03*
X150129162Y-73700000D03*
X152409581Y-74644581D03*
D19*
X152409581Y-71419581D03*
%TD*%
D22*
%TO.C,U6*%
X124508224Y-126454000D03*
D23*
X124508224Y-123914000D03*
X124508224Y-121374000D03*
X124508224Y-118834000D03*
X116888224Y-118834000D03*
X116888224Y-121374000D03*
X116888224Y-123914000D03*
X116888224Y-126454000D03*
%TD*%
D12*
%TO.C,J5*%
X166660000Y-70420000D03*
D13*
X166660000Y-73920000D03*
X166660000Y-77420000D03*
X166660000Y-80920000D03*
X166660000Y-84420000D03*
X166660000Y-87920000D03*
X166660000Y-91420000D03*
X166660000Y-94920000D03*
X166660000Y-98420000D03*
X166660000Y-101920000D03*
%TD*%
D12*
%TO.C,C501*%
X151930000Y-127715216D03*
D13*
X151930000Y-122715216D03*
%TD*%
D10*
%TO.C,J1*%
X164730000Y-56735000D03*
D11*
X164730000Y-61735000D03*
%TD*%
D18*
%TO.C,H2*%
X161639581Y-48710419D03*
X163920000Y-43205000D03*
X161639581Y-44149581D03*
X163920000Y-49655000D03*
X166200419Y-44149581D03*
X167145000Y-46430000D03*
X160695000Y-46430000D03*
D19*
X163920000Y-46430000D03*
D18*
X166200419Y-48710419D03*
%TD*%
M02*
